<mxfile host="app.diagrams.net" agent="Mozilla/5.0 (Windows NT 10.0; Win64; x64) AppleWebKit/537.36 (KHTML, like Gecko) Chrome/131.0.0.0 Safari/537.36 Edg/131.0.0.0" version="24.8.6">
  <diagram name="第 1 页" id="NMcsGsnryKrD4yIE23WE">
    <mxGraphModel dx="1259" dy="1962" grid="1" gridSize="10" guides="1" tooltips="1" connect="1" arrows="1" fold="1" page="1" pageScale="1" pageWidth="827" pageHeight="1169" math="0" shadow="0">
      <root>
        <mxCell id="0" />
        <mxCell id="1" parent="0" />
        <mxCell id="m9WyP25kF855_2U5g4zE-1" value="" style="rounded=1;whiteSpace=wrap;html=1;fillColor=#f8cecc;strokeColor=#b85450;" vertex="1" parent="1">
          <mxGeometry x="100" y="150" width="350" height="450" as="geometry" />
        </mxCell>
        <mxCell id="m9WyP25kF855_2U5g4zE-2" value="&lt;b&gt;斯维尔解析逻辑&lt;/b&gt;" style="text;html=1;align=center;verticalAlign=middle;whiteSpace=wrap;rounded=0;" vertex="1" parent="1">
          <mxGeometry x="130" y="170" width="120" height="30" as="geometry" />
        </mxCell>
        <mxCell id="m9WyP25kF855_2U5g4zE-3" value="" style="rounded=1;whiteSpace=wrap;html=1;fillColor=#dae8fc;strokeColor=#6c8ebf;" vertex="1" parent="1">
          <mxGeometry x="580" y="150" width="330" height="310" as="geometry" />
        </mxCell>
        <mxCell id="m9WyP25kF855_2U5g4zE-4" value="广联达解析逻辑" style="text;html=1;align=center;verticalAlign=middle;whiteSpace=wrap;rounded=0;" vertex="1" parent="1">
          <mxGeometry x="620" y="170" width="120" height="30" as="geometry" />
        </mxCell>
        <mxCell id="m9WyP25kF855_2U5g4zE-10" style="edgeStyle=orthogonalEdgeStyle;rounded=0;orthogonalLoop=1;jettySize=auto;html=1;entryX=0.5;entryY=0;entryDx=0;entryDy=0;" edge="1" parent="1" source="m9WyP25kF855_2U5g4zE-5" target="m9WyP25kF855_2U5g4zE-3">
          <mxGeometry relative="1" as="geometry">
            <mxPoint x="790" as="targetPoint" />
            <Array as="points">
              <mxPoint x="695" />
              <mxPoint x="695" y="1" />
              <mxPoint x="760" y="1" />
            </Array>
          </mxGeometry>
        </mxCell>
        <mxCell id="m9WyP25kF855_2U5g4zE-5" value="判断文件后缀" style="rhombus;whiteSpace=wrap;html=1;fillColor=#fff2cc;strokeColor=#d6b656;" vertex="1" parent="1">
          <mxGeometry x="440" y="-30" width="160" height="60" as="geometry" />
        </mxCell>
        <mxCell id="m9WyP25kF855_2U5g4zE-7" value="Start" style="ellipse;whiteSpace=wrap;html=1;fillColor=#fff2cc;strokeColor=#d6b656;" vertex="1" parent="1">
          <mxGeometry x="460" y="-180" width="120" height="80" as="geometry" />
        </mxCell>
        <mxCell id="m9WyP25kF855_2U5g4zE-8" value="" style="endArrow=classic;html=1;rounded=0;exitX=0.5;exitY=1;exitDx=0;exitDy=0;entryX=0.5;entryY=0;entryDx=0;entryDy=0;" edge="1" parent="1" source="m9WyP25kF855_2U5g4zE-7" target="m9WyP25kF855_2U5g4zE-5">
          <mxGeometry width="50" height="50" relative="1" as="geometry">
            <mxPoint x="260" y="10" as="sourcePoint" />
            <mxPoint x="310" y="-40" as="targetPoint" />
          </mxGeometry>
        </mxCell>
        <mxCell id="m9WyP25kF855_2U5g4zE-9" value="" style="endArrow=classic;html=1;rounded=0;exitX=0;exitY=0.5;exitDx=0;exitDy=0;entryX=0.5;entryY=0;entryDx=0;entryDy=0;" edge="1" parent="1" source="m9WyP25kF855_2U5g4zE-5" target="m9WyP25kF855_2U5g4zE-1">
          <mxGeometry width="50" height="50" relative="1" as="geometry">
            <mxPoint x="250" y="20" as="sourcePoint" />
            <mxPoint x="270" as="targetPoint" />
            <Array as="points">
              <mxPoint x="280" />
            </Array>
          </mxGeometry>
        </mxCell>
        <mxCell id="m9WyP25kF855_2U5g4zE-11" value="调用open_software函数 (打开C盘目录下的快捷方式)" style="text;html=1;align=center;verticalAlign=middle;whiteSpace=wrap;rounded=0;" vertex="1" parent="1">
          <mxGeometry x="130" y="210" width="290" height="30" as="geometry" />
        </mxCell>
        <mxCell id="m9WyP25kF855_2U5g4zE-12" value="close_tips函数关闭斯维尔软件的打开提示" style="text;html=1;align=center;verticalAlign=middle;whiteSpace=wrap;rounded=0;" vertex="1" parent="1">
          <mxGeometry x="135" y="250" width="290" height="30" as="geometry" />
        </mxCell>
        <mxCell id="m9WyP25kF855_2U5g4zE-13" value="判断后缀是qdy还是qdg文件" style="text;html=1;align=center;verticalAlign=middle;whiteSpace=wrap;rounded=0;" vertex="1" parent="1">
          <mxGeometry x="135" y="290" width="290" height="30" as="geometry" />
        </mxCell>
        <mxCell id="m9WyP25kF855_2U5g4zE-14" value="打开计价文件" style="text;html=1;align=center;verticalAlign=middle;whiteSpace=wrap;rounded=0;" vertex="1" parent="1">
          <mxGeometry x="145" y="330" width="290" height="30" as="geometry" />
        </mxCell>
        <mxCell id="m9WyP25kF855_2U5g4zE-15" value="点击电子标书按钮" style="text;html=1;align=center;verticalAlign=middle;whiteSpace=wrap;rounded=0;" vertex="1" parent="1">
          <mxGeometry x="135" y="370" width="290" height="30" as="geometry" />
        </mxCell>
        <mxCell id="m9WyP25kF855_2U5g4zE-16" value="点击生成标书按钮" style="text;html=1;align=center;verticalAlign=middle;whiteSpace=wrap;rounded=0;" vertex="1" parent="1">
          <mxGeometry x="135" y="410" width="290" height="30" as="geometry" />
        </mxCell>
        <mxCell id="m9WyP25kF855_2U5g4zE-17" value="选用最新导出接口与老接口进行导出" style="text;html=1;align=center;verticalAlign=middle;whiteSpace=wrap;rounded=0;" vertex="1" parent="1">
          <mxGeometry x="135" y="450" width="290" height="30" as="geometry" />
        </mxCell>
        <mxCell id="m9WyP25kF855_2U5g4zE-19" value="检测导出成功窗口" style="text;html=1;align=center;verticalAlign=middle;whiteSpace=wrap;rounded=0;" vertex="1" parent="1">
          <mxGeometry x="135" y="490" width="290" height="30" as="geometry" />
        </mxCell>
        <mxCell id="m9WyP25kF855_2U5g4zE-20" value="导出成功上传目标swt文件" style="text;html=1;align=center;verticalAlign=middle;whiteSpace=wrap;rounded=0;" vertex="1" parent="1">
          <mxGeometry x="135" y="530" width="290" height="30" as="geometry" />
        </mxCell>
        <mxCell id="m9WyP25kF855_2U5g4zE-21" value="打开广联达软件(打开C盘目录下的快捷方式)" style="text;html=1;align=center;verticalAlign=middle;whiteSpace=wrap;rounded=0;" vertex="1" parent="1">
          <mxGeometry x="620" y="210" width="290" height="30" as="geometry" />
        </mxCell>
        <mxCell id="m9WyP25kF855_2U5g4zE-22" value="模拟鼠标点击的方式，打开文件" style="text;html=1;align=center;verticalAlign=middle;whiteSpace=wrap;rounded=0;" vertex="1" parent="1">
          <mxGeometry x="620" y="250" width="290" height="30" as="geometry" />
        </mxCell>
        <mxCell id="m9WyP25kF855_2U5g4zE-23" value="在软件里面模拟鼠标点击，触发导出按钮" style="text;html=1;align=center;verticalAlign=middle;whiteSpace=wrap;rounded=0;" vertex="1" parent="1">
          <mxGeometry x="620" y="290" width="290" height="30" as="geometry" />
        </mxCell>
        <mxCell id="m9WyP25kF855_2U5g4zE-24" value="完成导出" style="text;html=1;align=center;verticalAlign=middle;whiteSpace=wrap;rounded=0;" vertex="1" parent="1">
          <mxGeometry x="620" y="370" width="290" height="30" as="geometry" />
        </mxCell>
        <mxCell id="m9WyP25kF855_2U5g4zE-25" value="等待导出成功窗口" style="text;html=1;align=center;verticalAlign=middle;whiteSpace=wrap;rounded=0;" vertex="1" parent="1">
          <mxGeometry x="620" y="330" width="290" height="30" as="geometry" />
        </mxCell>
      </root>
    </mxGraphModel>
  </diagram>
</mxfile>
